PathFileType	4	(x/y/z)	S10_M20_T58
DataRate	CameraRate	NumFrames	NumMarkers	Units	OrigDataRate	OrigDataStartFrame	OrigNumFrames
240	240	7	51	mm	240	68	538
Frame#	Time	Sternum			R.Acromium			L.Acromium			Top.Head			R.ASIS			L.ASIS			R.PSIS			L.PSIS			R.Great.Tro			L.Great.Tro			R.Iliac.Crest			L.Iliac.Crest			V.Sacral			R.Thigh.Upper.Post			R.Thigh.Lower.Ant			R.Thigh.Lower.Post			R.Thigh.Upper.Ant			R.Knee.Lat			R.Knee.Med			R.Shank.Upper.Post			R.Shank.Lower.Ant			R.Shank.Lower.Post			R.Shank.Upper.Ant			R.Ankle.Lat			R.Ankle.Med			R.Heel.Upper			R.Heel.Med			R.Heel.Lat			R.Toe.Lat			R.Toe.Med			R.Toe.Tip			L.Thigh.Upper.Post			L.Thigh.Lower.Ant			L.Thigh.Lower.Post			L.Thigh.Upper.Ant			L.Knee.Lat			L.Knee.Med			L.Shank.Upper.Post			L.Shank.Lower.Ant			L.Shank.Lower.Post			L.Shank.Upper.Ant			L.Ankle.Lat			L.Ankle.Med			L.Heel.Upper			L.Heel.Med			L.Heel.Lat			L.Toe.Lat			L.Toe.Med			L.Toe.Tip			Cervical.Spine			Back			
		X1	Y1	Z1	X2	Y2	Z2	X3	Y3	Z3	X4	Y4	Z4	X5	Y5	Z5	X6	Y6	Z6	X7	Y7	Z7	X8	Y8	Z8	X9	Y9	Z9	X10	Y10	Z10	X11	Y11	Z11	X12	Y12	Z12	X13	Y13	Z13	X14	Y14	Z14	X15	Y15	Z15	X16	Y16	Z16	X17	Y17	Z17	X18	Y18	Z18	X19	Y19	Z19	X20	Y20	Z20	X21	Y21	Z21	X22	Y22	Z22	X23	Y23	Z23	X24	Y24	Z24	X25	Y25	Z25	X26	Y26	Z26	X27	Y27	Z27	X28	Y28	Z28	X29	Y29	Z29	X30	Y30	Z30	X31	Y31	Z31	X32	Y32	Z32	X33	Y33	Z33	X34	Y34	Z34	X35	Y35	Z35	X36	Y36	Z36	X37	Y37	Z37	X38	Y38	Z38	X39	Y39	Z39	X40	Y40	Z40	X41	Y41	Z41	X42	Y42	Z42	X43	Y43	Z43	X44	Y44	Z44	X45	Y45	Z45	X46	Y46	Z46	X47	Y47	Z47	X48	Y48	Z48	X49	Y49	Z49	X50	Y50	Z50	X51	Y51	Z51	

68	0.27917	-410.92	1260.7	279.98	-524.72	1422.7	425.18	-538.82	1427.6	118.93	-568.14	1734.9	291.77	-469.74	981.72	389.08	-456.41	1021.6	162.39	-665.71	1011.8	287.89	-656.33	1027.4	208.83	-550.7	896.5	444.41	-510.43	967.01	96.307	-567.31	1061	431.87	-522.49	1097.8	136.1	-682.97	985.09	246.58	-508.49	692.76	457.51	-438.24	621.55	434.75	-502.45	603.38	453.6	-441.03	713.56	436.07	-494.38	479.02	426.89	-478.82	472.01	295.62	-695.28	391.32	425.91	-711.12	302.62	408.76	-756.12	348.37	417.36	-644.63	341.71	416.37	-835.78	275.38	396.65	-816.37	274.45	314.15	-874.55	319.26	345.79	-897.48	311.64	314.77	-903.48	312.61	375.77	-910.2	138.43	410.35	-884.48	119.17	305.4	-867.2	60.569	346.3	-492.98	676.92	107.66	-407.76	615.41	144.39	-476.75	586.75	136.06	-418.48	701.51	117.76	-429.58	510.77	160.31	-431.2	519.37	287.8	-501.44	299.5	166.08	-439.09	209.83	188.39	-501.12	222.46	178.37	-438.19	285.78	174.64	-481.24	104.73	195.16	-468.57	117.11	282.99	-553.01	76.221	244.11	-539.42	43.213	277.37	-545.81	45.068	212.99	-368.89	40.582	173.01	-340.68	45.636	281.5	-285.83	58.338	231.66	-612.63	1482.7	285.23	-699.38	1274.4	279.65
69	0.28333	-406.22	1261.8	280.21	-520.74	1423.6	425.13	-533.31	1428.8	118.82	-562.91	1736	291.57	-464.84	983.2	388.69	-452.06	1022.4	161.92	-661.03	1012.9	287.99	-651.8	1028.3	208.87	-545.28	898.12	444.56	-506.45	967.49	96.087	-562.59	1062.5	431.63	-518.13	1098.6	135.76	-678.41	986.13	246.81	-500.74	694.58	457.97	-429.71	624.23	434.9	-493.55	605.27	454.23	-433.79	716.08	435.74	-484.05	480.95	427.43	-468.44	474.03	296.06	-684.38	392.28	426.04	-699.74	303.48	408.97	-745.03	349.05	417.52	-633.45	342.93	416.64	-824.34	275.53	396.74	-804.96	274.52	314.37	-864.2	318.59	345.56	-887.01	310.38	314.66	-892.86	311.59	375.73	-896.15	137.68	411.11	-870.37	118.41	306.15	-851.88	60.456	347.21	-490.65	677.36	107.53	-405.74	615.27	143.95	-474.99	587.04	135.85	-416.01	701.43	117.45	-428.2	510.73	159.97	-429.51	519.28	287.44	-500.77	299.67	165.9	-438.7	209.78	188.24	-500.71	222.65	178.24	-437.55	285.73	174.41	-481.15	104.76	195.11	-468.37	117.28	283.02	-553	76.292	244.1	-539.39	43.291	277.37	-545.79	45.132	212.98	-368.89	40.561	172.94	-340.63	45.618	281.46	-285.8	58.246	231.62	-607.97	1483.7	284.74	-694.74	1275.4	278.79
70	0.2875	-401.53	1263	280.41	-516.76	1424.5	425.07	-527.84	1430.1	118.73	-557.69	1737.1	291.38	-459.93	984.68	388.27	-447.76	1023.2	161.41	-656.36	1014	288.14	-647.3	1029.2	208.96	-539.83	899.74	444.73	-502.49	967.96	95.856	-557.83	1064	431.39	-513.81	1099.3	135.4	-673.85	987.13	247.08	-493	696.43	458.42	-421.21	626.96	435.03	-484.66	607.23	454.88	-426.58	718.63	435.36	-473.81	482.93	427.97	-458.08	476.12	296.51	-673.55	393.2	426.13	-688.35	304.29	409.18	-733.95	349.64	417.65	-622.31	344.12	416.91	-812.87	275.52	396.82	-793.55	274.41	314.61	-853.93	317.68	345.35	-876.61	308.84	314.57	-882.3	310.27	375.71	-881.79	136.71	411.87	-855.95	117.5	306.91	-836.16	60.231	348.1	-488.35	677.8	107.42	-403.76	615.14	143.53	-473.27	587.33	135.66	-413.57	701.35	117.14	-426.86	510.69	159.64	-427.84	519.19	287.08	-500.11	299.84	165.71	-438.33	209.75	188.08	-500.3	222.83	178.11	-436.93	285.68	174.18	-481.07	104.8	195.05	-468.18	117.45	283.06	-552.98	76.361	244.09	-539.37	43.372	277.38	-545.77	45.198	212.97	-368.9	40.54	172.88	-340.59	45.602	281.42	-285.76	58.155	231.59	-603.32	1484.7	284.26	-690.11	1276.5	277.95
71	0.29167	-396.85	1264.1	280.57	-512.79	1425.4	425.02	-522.41	1431.3	118.64	-552.48	1738.2	291.2	-455.01	986.14	387.82	-443.48	1023.9	160.86	-651.7	1015	288.33	-642.81	1030.1	209.08	-534.34	901.36	444.94	-498.57	968.41	95.616	-553.06	1065.5	431.16	-509.54	1100	135.01	-669.3	988.11	247.4	-485.28	698.33	458.87	-412.75	629.72	435.11	-475.78	609.24	455.53	-419.41	721.21	434.96	-463.64	484.95	428.49	-447.75	478.28	296.97	-662.78	394.06	426.19	-676.96	305.03	409.4	-722.9	350.14	417.77	-611.19	345.31	417.18	-801.39	275.33	396.89	-782.15	274.14	314.87	-843.74	316.5	345.17	-866.26	307	314.51	-871.78	308.65	375.72	-867.17	135.54	412.65	-841.23	116.43	307.67	-820.03	59.909	349	-486.1	678.25	107.33	-401.83	614.99	143.11	-471.58	587.62	135.49	-411.17	701.26	116.82	-425.55	510.66	159.3	-426.18	519.08	286.74	-499.47	300	165.53	-437.97	209.72	187.92	-499.9	223.02	177.98	-436.32	285.64	173.96	-480.99	104.83	195	-467.99	117.62	283.1	-552.96	76.43	244.09	-539.35	43.456	277.39	-545.75	45.265	212.96	-368.9	40.518	172.81	-340.55	45.587	281.38	-285.73	58.064	231.55	-598.68	1485.7	283.79	-685.49	1277.5	277.14
72	0.29583	-392.18	1265.3	280.69	-508.81	1426.3	424.98	-517.02	1432.6	118.57	-547.28	1739.2	291.05	-450.07	987.59	387.33	-439.22	1024.6	160.3	-647.04	1016.1	288.55	-638.34	1030.9	209.23	-528.82	902.98	445.16	-494.67	968.84	95.368	-548.27	1067	430.93	-505.3	1100.7	134.61	-664.75	989.05	247.76	-477.56	700.26	459.31	-404.32	632.51	435.16	-466.91	611.29	456.18	-412.26	723.81	434.54	-453.56	487.01	429.01	-437.46	480.5	297.42	-652.08	394.86	426.2	-665.58	305.69	409.63	-711.86	350.53	417.88	-600.1	346.47	417.46	-789.87	274.95	396.96	-770.74	273.69	315.16	-833.59	315.07	345.01	-855.94	304.88	314.48	-861.29	306.74	375.75	-852.27	134.17	413.44	-826.22	115.23	308.44	-803.54	59.505	349.9	-483.89	678.7	107.26	-399.95	614.84	142.71	-469.93	587.91	135.34	-408.8	701.17	116.49	-424.28	510.64	158.98	-424.51	518.98	286.4	-498.85	300.17	165.35	-437.62	209.71	187.77	-499.5	223.21	177.85	-435.73	285.61	173.75	-480.91	104.86	194.95	-467.81	117.78	283.14	-552.94	76.496	244.1	-539.35	43.541	277.39	-545.72	45.334	212.95	-368.9	40.496	172.75	-340.51	45.573	281.34	-285.7	57.974	231.52	-594.05	1486.7	283.34	-680.87	1278.5	276.34
73	0.3	-387.53	1266.4	280.78	-504.84	1427.1	424.93	-511.66	1433.9	118.5	-542.1	1740.3	290.91	-445.12	989.01	386.82	-434.99	1025.3	159.7	-642.39	1017.1	288.81	-633.88	1031.7	209.41	-523.26	904.59	445.4	-490.78	969.26	95.112	-543.45	1068.4	430.71	-501.09	1101.4	134.19	-660.21	989.95	248.15	-469.85	702.22	459.74	-395.93	635.32	435.17	-458.05	613.4	456.83	-405.14	726.45	434.11	-443.56	489.1	429.51	-427.24	482.78	297.88	-641.45	395.6	426.17	-654.2	306.28	409.87	-700.85	350.83	417.97	-589.06	347.6	417.73	-778.32	274.39	397.02	-759.33	273.07	315.46	-823.49	313.37	344.88	-845.62	302.46	314.47	-850.81	304.52	375.8	-837.13	132.63	414.23	-810.93	113.9	309.2	-786.7	59.034	350.79	-481.71	679.16	107.22	-398.11	614.68	142.32	-468.32	588.2	135.22	-406.46	701.07	116.16	-423.05	510.62	158.65	-422.83	518.86	286.06	-498.25	300.33	165.19	-437.29	209.7	187.61	-499.11	223.41	177.72	-435.16	285.59	173.54	-480.83	104.89	194.9	-467.63	117.94	283.18	-552.92	76.56	244.11	-539.35	43.628	277.4	-545.7	45.404	212.95	-368.9	40.472	172.69	-340.47	45.56	281.3	-285.67	57.885	231.48	-589.42	1487.7	282.91	-676.25	1279.5	275.56
74	0.30417	-382.89	1267.5	280.83	-500.86	1428	424.89	-506.33	1435.1	118.44	-536.93	1741.3	290.78	-440.16	990.41	386.29	-430.78	1026	159.09	-637.75	1018.1	289.09	-629.43	1032.4	209.62	-517.69	906.19	445.65	-486.9	969.65	94.851	-538.62	1069.9	430.48	-496.9	1102	133.76	-655.66	990.82	248.56	-462.15	704.21	460.15	-387.58	638.16	435.13	-449.22	615.54	457.47	-398.05	729.1	433.66	-433.65	491.21	429.99	-417.1	485.12	298.34	-630.89	396.27	426.12	-642.83	306.78	410.12	-689.86	351.01	418.05	-578.05	348.69	418.01	-766.74	273.65	397.09	-747.91	272.27	315.78	-813.4	311.41	344.79	-835.3	299.76	314.49	-840.32	302.01	375.87	-821.74	130.93	415.02	-795.38	112.47	309.96	-769.54	58.512	351.68	-479.56	679.61	107.19	-396.32	614.51	141.96	-466.75	588.5	135.11	-404.15	700.97	115.83	-421.86	510.61	158.34	-421.14	518.75	285.74	-497.67	300.49	165.04	-436.97	209.71	187.46	-498.72	223.62	177.58	-434.62	285.57	173.33	-480.76	104.92	194.86	-467.46	118.09	283.21	-552.9	76.623	244.13	-539.37	43.716	277.41	-545.67	45.475	212.95	-368.9	40.448	172.63	-340.43	45.546	281.26	-285.63	57.797	231.46	-584.81	1488.6	282.49	-671.64	1280.4	274.8
